<svg id="Capa_1" enable-background="new 0 0 512 512" height="512" viewBox="0 0 512 512" width="512" xmlns="http://www.w3.org/2000/svg"><g id="Placeholder"><path d="m416 160c0 100.16-102.08 221.76-106.881 227.84-29.439 36.48-53.119 60.16-53.119 60.16s-23.68-23.68-53.119-60.16c-5.121-6.721-106.881-127.68-106.881-227.84 0-88.32 71.68-160 160-160s160 71.68 160 160z" fill="#4db5ff"/><circle cx="256" cy="160" fill="#80eaff" r="64"/><path d="m309.119 387.84c-29.439 36.48-53.119 60.16-53.119 60.16s-23.68-23.68-53.119-60.16c16.639-2.561 34.558-3.84 53.119-3.84s36.48 1.279 53.119 3.84z" fill="#37f"/><path d="m416 448c0 35.199-71.68 64-160 64s-160-28.801-160-64c0-27.84 44.801-51.52 106.881-60.16 29.439 36.48 53.119 60.16 53.119 60.16s23.68-23.68 53.119-60.16c62.08 8.64 106.881 32.32 106.881 60.16z" fill="#80eaff"/></g></svg>